ffmpeg started on 2025-05-12 at 15:04:47
Report written to "D:\Convert\FFMetrics\reports\psnr_report-6.txt"
Log level: 32
Command line:
ffmpeg -hide_banner -nostdin -i "G:\\\xc0\xed\xe8\xec\xe5\\\xce\xed\xe3\xee\xe8\xed\xe3\xe8\\!_35_\xcb\xe5\xf2\xee_2024\\DreamCast\\\xc6\xe8\xe7\xed\xfc \xf1 \xec\xee\xe5\xe9 \xf1\xe2\xee\xe4\xed\xee\xe9 \xf1\xe5\xf1\xf2\xf0\xee\xe9\\[DC] Gimai Seikatsu - 02_Telegram_HEVC.mkv" -i "G:\\\xc0\xed\xe8\xec\xe5\\\xce\xed\xe3\xee\xe8\xed\xe3\xe8\\!_35_\xcb\xe5\xf2\xee_2024\\DreamCast\\\xc6\xe8\xe7\xed\xfc \xf1 \xec\xee\xe5\xe9 \xf1\xe2\xee\xe4\xed\xee\xe9 \xf1\xe5\xf1\xf2\xf0\xee\xe9\\[DC] Gimai Seikatsu - 02_Telegram.mp4" -lavfi "[0:v]settb=AVTB,setpts=PTS-STARTPTS,format=pix_fmts=yuv420p10,fps=24000/1001,scale=1920:1080:flags=bicubic[main];[1:v]settb=AVTB,setpts=PTS-STARTPTS,format=pix_fmts=yuv420p,fps=24000/1001,scale=1920:1080:flags=bicubic[ref];[main][ref]psnr=eof_action=endall:stats_file='D\\:/Convert/FFMetrics/logs/psnr_logfile-6.txt'" -f null -
Input #0, matroska,webm, from 'G:\Аниме\Онгоинги\!_35_Лето_2024\DreamCast\Жизнь с моей сводной сестрой\[DC] Gimai Seikatsu - 02_Telegram_HEVC.mkv':
  Metadata:
    COMPATIBLE_BRANDS: isomiso2avc1mp41
    MAJOR_BRAND     : isom
    MINOR_VERSION   : 512
    ENCODER         : Lavf61.7.100
  Duration: 00:23:56.80, start: -0.021000, bitrate: 791 kb/s
  Stream #0:0: Video: hevc (Main 10), yuv420p10le(tv, bt709, progressive), 1920x1080 [SAR 1:1 DAR 16:9], 23.98 fps, 23.98 tbr, 1k tbn (default)
      Metadata:
        HANDLER_NAME    : VideoHandler
        VENDOR_ID       : [0][0][0][0]
        ENCODER         : Lavc61.19.100 libx265
        BPS             : 594583
        DURATION        : 00:23:56.643708333
        NUMBER_OF_FRAMES: 34445
        NUMBER_OF_BYTES : 106775504
        _STATISTICS_WRITING_APP: mkvpropedit v66.0.0 ('Josie') 64-bit
        _STATISTICS_WRITING_DATE_UTC: 2025-05-07 12:30:42
        _STATISTICS_TAGS: BPS DURATION NUMBER_OF_FRAMES NUMBER_OF_BYTES
  Stream #0:1: Audio: aac (LC), 48000 Hz, stereo, fltp (default)
      Metadata:
        HANDLER_NAME    : SoundHandler
        VENDOR_ID       : [0][0][0][0]
        ENCODER         : Lavc61.19.100 aac
        BPS             : 192811
        DURATION        : 00:23:56.800000000
        NUMBER_OF_FRAMES: 67351
        NUMBER_OF_BYTES : 34628921
        _STATISTICS_WRITING_APP: mkvpropedit v66.0.0 ('Josie') 64-bit
        _STATISTICS_WRITING_DATE_UTC: 2025-05-07 12:30:42
        _STATISTICS_TAGS: BPS DURATION NUMBER_OF_FRAMES NUMBER_OF_BYTES
Input #1, mov,mp4,m4a,3gp,3g2,mj2, from 'G:\Аниме\Онгоинги\!_35_Лето_2024\DreamCast\Жизнь с моей сводной сестрой\[DC] Gimai Seikatsu - 02_Telegram.mp4':
  Metadata:
    major_brand     : isom
    minor_version   : 512
    compatible_brands: isomiso2avc1mp41
    encoder         : Lavf61.1.100
  Duration: 00:23:56.78, start: 0.000000, bitrate: 3591 kb/s
  Stream #1:0[0x1](und): Video: h264 (High) (avc1 / 0x31637661), yuv420p(tv, bt709, progressive), 1920x1080 [SAR 1:1 DAR 16:9], 3443 kb/s, 23.98 fps, 23.98 tbr, 24k tbn (default)
      Metadata:
        handler_name    : VideoHandler
        vendor_id       : [0][0][0][0]
        encoder         : Lavc61.3.100 h264_qsv
  Stream #1:1[0x2](und): Audio: aac (HE-AACv2) (mp4a / 0x6134706D), 48000 Hz, stereo, fltp, 144 kb/s (default)
      Metadata:
        handler_name    : SoundHandler
        vendor_id       : [0][0][0][0]
Stream mapping:
  Stream #0:0 (hevc) -> settb:default
  Stream #1:0 (h264) -> settb:default
  psnr:default -> Stream #0:0 (wrapped_avframe)
  Stream #0:1 -> #0:1 (aac (native) -> pcm_s16le (native))
Output #0, null, to 'pipe:':
  Metadata:
    COMPATIBLE_BRANDS: isomiso2avc1mp41
    MAJOR_BRAND     : isom
    MINOR_VERSION   : 512
    encoder         : Lavf61.7.100
  Stream #0:0: Video: wrapped_avframe, yuv420p10le(tv, bt709, progressive), 1920x1080 [SAR 1:1 DAR 16:9], q=2-31, 200 kb/s, 23.98 fps, 23.98 tbn
      Metadata:
        encoder         : Lavc61.19.100 wrapped_avframe
  Stream #0:1: Audio: pcm_s16le, 48000 Hz, stereo, s16, 1536 kb/s (default)
      Metadata:
        HANDLER_NAME    : SoundHandler
        VENDOR_ID       : [0][0][0][0]
        _STATISTICS_TAGS: BPS DURATION NUMBER_OF_FRAMES NUMBER_OF_BYTES
        BPS             : 192811
        DURATION        : 00:23:56.800000000
        NUMBER_OF_FRAMES: 67351
        NUMBER_OF_BYTES : 34628921
        _STATISTICS_WRITING_APP: mkvpropedit v66.0.0 ('Josie') 64-bit
        _STATISTICS_WRITING_DATE_UTC: 2025-05-07 12:30:42
        encoder         : Lavc61.19.100 pcm_s16le
frame=  105 fps=0.0 q=-0.0 size=N/A time=00:00:04.37 bitrate=N/A speed=8.47x    frame=  367 fps=351 q=-0.0 size=N/A time=00:00:15.30 bitrate=N/A speed=14.7x    frame=  634 fps=410 q=-0.0 size=N/A time=00:00:26.44 bitrate=N/A speed=17.1x    frame=  900 fps=435 q=-0.0 size=N/A time=00:00:37.53 bitrate=N/A speed=18.1x    frame= 1164 fps=452 q=-0.0 size=N/A time=00:00:48.54 bitrate=N/A speed=18.8x    frame= 1433 fps=462 q=-0.0 size=N/A time=00:00:59.76 bitrate=N/A speed=19.3x    frame= 1705 fps=471 q=-0.0 size=N/A time=00:01:11.11 bitrate=N/A speed=19.6x    frame= 1971 fps=477 q=-0.0 size=N/A time=00:01:22.20 bitrate=N/A speed=19.9x    frame= 2233 fps=480 q=-0.0 size=N/A time=00:01:33.13 bitrate=N/A speed=  20x    frame= 2442 fps=473 q=-0.0 size=N/A time=00:01:41.85 bitrate=N/A speed=19.7x    frame= 2672 fps=470 q=-0.0 size=N/A time=00:01:51.44 bitrate=N/A speed=19.6x    frame= 2894 fps=468 q=-0.0 size=N/A time=00:02:00.70 bitrate=N/A speed=19.5x    frame= 3135 fps=467 q=-0.0 size=N/A time=00:02:10.75 bitrate=N/A speed=19.5x    frame= 3376 fps=467 q=-0.0 size=N/A time=00:02:20.80 bitrate=N/A speed=19.5x    frame= 3548 fps=459 q=-0.0 size=N/A time=00:02:27.98 bitrate=N/A speed=19.1x    frame= 3712 fps=449 q=-0.0 size=N/A time=00:02:34.82 bitrate=N/A speed=18.7x    frame= 3942 fps=449 q=-0.0 size=N/A time=00:02:44.41 bitrate=N/A speed=18.7x    frame= 4187 fps=451 q=-0.0 size=N/A time=00:02:54.63 bitrate=N/A speed=18.8x    frame= 4448 fps=454 q=-0.0 size=N/A time=00:03:05.51 bitrate=N/A speed=18.9x    frame= 4709 fps=456 q=-0.0 size=N/A time=00:03:16.40 bitrate=N/A speed=  19x    frame= 4956 fps=457 q=-0.0 size=N/A time=00:03:26.70 bitrate=N/A speed=19.1x    frame= 5227 fps=460 q=-0.0 size=N/A time=00:03:38.00 bitrate=N/A speed=19.2x    frame= 5502 fps=463 q=-0.0 size=N/A time=00:03:49.52 bitrate=N/A speed=19.3x    frame= 5762 fps=465 q=-0.0 size=N/A time=00:04:00.32 bitrate=N/A speed=19.4x    frame= 6018 fps=466 q=-0.0 size=N/A time=00:04:11.00 bitrate=N/A speed=19.4x    frame= 6288 fps=468 q=-0.0 size=N/A time=00:04:22.26 bitrate=N/A speed=19.5x    frame= 6547 fps=470 q=-0.0 size=N/A time=00:04:33.06 bitrate=N/A speed=19.6x    frame= 6809 fps=471 q=-0.0 size=N/A time=00:04:43.99 bitrate=N/A speed=19.6x    frame= 7078 fps=472 q=-0.0 size=N/A time=00:04:55.21 bitrate=N/A speed=19.7x    frame= 7305 fps=472 q=-0.0 size=N/A time=00:05:04.67 bitrate=N/A speed=19.7x    frame= 7542 fps=471 q=-0.0 size=N/A time=00:05:14.56 bitrate=N/A speed=19.7x    frame= 7818 fps=473 q=-0.0 size=N/A time=00:05:26.07 bitrate=N/A speed=19.7x    frame= 8048 fps=473 q=-0.0 size=N/A time=00:05:35.66 bitrate=N/A speed=19.7x    frame= 8303 fps=473 q=-0.0 size=N/A time=00:05:46.30 bitrate=N/A speed=19.7x    frame= 8551 fps=473 q=-0.0 size=N/A time=00:05:56.64 bitrate=N/A speed=19.7x    frame= 8797 fps=473 q=-0.0 size=N/A time=00:06:06.90 bitrate=N/A speed=19.7x    frame= 9035 fps=473 q=-0.0 size=N/A time=00:06:16.83 bitrate=N/A speed=19.7x    frame= 9265 fps=472 q=-0.0 size=N/A time=00:06:26.42 bitrate=N/A speed=19.7x    frame= 9489 fps=471 q=-0.0 size=N/A time=00:06:35.77 bitrate=N/A speed=19.7x    frame= 9758 fps=472 q=-0.0 size=N/A time=00:06:46.98 bitrate=N/A speed=19.7x    frame=10014 fps=473 q=-0.0 size=N/A time=00:06:57.66 bitrate=N/A speed=19.7x    frame=10265 fps=473 q=-0.0 size=N/A time=00:07:08.13 bitrate=N/A speed=19.7x    frame=10516 fps=473 q=-0.0 size=N/A time=00:07:18.60 bitrate=N/A speed=19.7x    frame=10781 fps=474 q=-0.0 size=N/A time=00:07:29.65 bitrate=N/A speed=19.8x    frame=11040 fps=475 q=-0.0 size=N/A time=00:07:40.46 bitrate=N/A speed=19.8x    frame=11307 fps=476 q=-0.0 size=N/A time=00:07:51.59 bitrate=N/A speed=19.8x    frame=11560 fps=476 q=-0.0 size=N/A time=00:08:02.14 bitrate=N/A speed=19.9x    frame=11817 fps=477 q=-0.0 size=N/A time=00:08:12.86 bitrate=N/A speed=19.9x    frame=12076 fps=477 q=-0.0 size=N/A time=00:08:23.66 bitrate=N/A speed=19.9x    frame=12353 fps=478 q=-0.0 size=N/A time=00:08:35.22 bitrate=N/A speed=19.9x    frame=12610 fps=479 q=-0.0 size=N/A time=00:08:45.94 bitrate=N/A speed=  20x    frame=12886 fps=480 q=-0.0 size=N/A time=00:08:57.45 bitrate=N/A speed=  20x    frame=13164 fps=481 q=-0.0 size=N/A time=00:09:09.04 bitrate=N/A speed=20.1x    frame=13428 fps=482 q=-0.0 size=N/A time=00:09:20.05 bitrate=N/A speed=20.1x    frame=13690 fps=482 q=-0.0 size=N/A time=00:09:30.98 bitrate=N/A speed=20.1x    frame=13937 fps=482 q=-0.0 size=N/A time=00:09:41.28 bitrate=N/A speed=20.1x    frame=14202 fps=482 q=-0.0 size=N/A time=00:09:52.34 bitrate=N/A speed=20.1x    frame=14465 fps=483 q=-0.0 size=N/A time=00:10:03.31 bitrate=N/A speed=20.1x    frame=14705 fps=483 q=-0.0 size=N/A time=00:10:13.32 bitrate=N/A speed=20.1x    frame=14974 fps=483 q=-0.0 size=N/A time=00:10:24.54 bitrate=N/A speed=20.2x    frame=15225 fps=484 q=-0.0 size=N/A time=00:10:35.00 bitrate=N/A speed=20.2x    frame=15497 fps=484 q=-0.0 size=N/A time=00:10:46.35 bitrate=N/A speed=20.2x    frame=15748 fps=484 q=-0.0 size=N/A time=00:10:56.82 bitrate=N/A speed=20.2x    frame=16001 fps=484 q=-0.0 size=N/A time=00:11:07.37 bitrate=N/A speed=20.2x    frame=16274 fps=485 q=-0.0 size=N/A time=00:11:18.76 bitrate=N/A speed=20.2x    frame=16532 fps=485 q=-0.0 size=N/A time=00:11:29.52 bitrate=N/A speed=20.2x    frame=16808 fps=486 q=-0.0 size=N/A time=00:11:41.03 bitrate=N/A speed=20.3x    frame=17104 fps=487 q=-0.0 size=N/A time=00:11:53.37 bitrate=N/A speed=20.3x    frame=17363 fps=488 q=-0.0 size=N/A time=00:12:04.18 bitrate=N/A speed=20.3x    frame=17646 fps=488 q=-0.0 size=N/A time=00:12:15.98 bitrate=N/A speed=20.4x    frame=17929 fps=489 q=-0.0 size=N/A time=00:12:27.78 bitrate=N/A speed=20.4x    frame=18181 fps=489 q=-0.0 size=N/A time=00:12:38.29 bitrate=N/A speed=20.4x    frame=18450 fps=490 q=-0.0 size=N/A time=00:12:49.51 bitrate=N/A speed=20.4x    frame=18714 fps=490 q=-0.0 size=N/A time=00:13:00.52 bitrate=N/A speed=20.4x    frame=18945 fps=489 q=-0.0 size=N/A time=00:13:10.16 bitrate=N/A speed=20.4x    frame=19143 fps=488 q=-0.0 size=N/A time=00:13:18.42 bitrate=N/A speed=20.4x    frame=19425 fps=489 q=-0.0 size=N/A time=00:13:30.18 bitrate=N/A speed=20.4x    frame=19694 fps=489 q=-0.0 size=N/A time=00:13:41.40 bitrate=N/A speed=20.4x    frame=19973 fps=490 q=-0.0 size=N/A time=00:13:53.04 bitrate=N/A speed=20.4x    frame=20251 fps=490 q=-0.0 size=N/A time=00:14:04.63 bitrate=N/A speed=20.4x    frame=20516 fps=490 q=-0.0 size=N/A time=00:14:15.68 bitrate=N/A speed=20.5x    frame=20776 fps=491 q=-0.0 size=N/A time=00:14:26.53 bitrate=N/A speed=20.5x    frame=21048 fps=491 q=-0.0 size=N/A time=00:14:37.87 bitrate=N/A speed=20.5x    frame=21319 fps=491 q=-0.0 size=N/A time=00:14:49.17 bitrate=N/A speed=20.5x    frame=21598 fps=492 q=-0.0 size=N/A time=00:15:00.81 bitrate=N/A speed=20.5x    frame=21852 fps=492 q=-0.0 size=N/A time=00:15:11.41 bitrate=N/A speed=20.5x    frame=22102 fps=492 q=-0.0 size=N/A time=00:15:21.83 bitrate=N/A speed=20.5x    frame=22298 fps=491 q=-0.0 size=N/A time=00:15:30.01 bitrate=N/A speed=20.5x    frame=22568 fps=491 q=-0.0 size=N/A time=00:15:41.27 bitrate=N/A speed=20.5x    frame=22824 fps=491 q=-0.0 size=N/A time=00:15:51.95 bitrate=N/A speed=20.5x    frame=23095 fps=491 q=-0.0 size=N/A time=00:16:03.25 bitrate=N/A speed=20.5x    frame=23369 fps=492 q=-0.0 size=N/A time=00:16:14.68 bitrate=N/A speed=20.5x    frame=23644 fps=492 q=-0.0 size=N/A time=00:16:26.15 bitrate=N/A speed=20.5x    frame=23923 fps=493 q=-0.0 size=N/A time=00:16:37.78 bitrate=N/A speed=20.6x    frame=24172 fps=493 q=-0.0 size=N/A time=00:16:48.17 bitrate=N/A speed=20.6x    frame=24442 fps=493 q=-0.0 size=N/A time=00:16:59.43 bitrate=N/A speed=20.6x    frame=24690 fps=493 q=-0.0 size=N/A time=00:17:09.77 bitrate=N/A speed=20.6x    frame=24950 fps=493 q=-0.0 size=N/A time=00:17:20.62 bitrate=N/A speed=20.6x    frame=25208 fps=493 q=-0.0 size=N/A time=00:17:31.38 bitrate=N/A speed=20.6x    frame=25478 fps=493 q=-0.0 size=N/A time=00:17:42.64 bitrate=N/A speed=20.6x    frame=25731 fps=493 q=-0.0 size=N/A time=00:17:53.19 bitrate=N/A speed=20.6x    frame=25979 fps=493 q=-0.0 size=N/A time=00:18:03.54 bitrate=N/A speed=20.6x    frame=26246 fps=494 q=-0.0 size=N/A time=00:18:14.67 bitrate=N/A speed=20.6x    frame=26521 fps=494 q=-0.0 size=N/A time=00:18:26.14 bitrate=N/A speed=20.6x    frame=26761 fps=494 q=-0.0 size=N/A time=00:18:36.15 bitrate=N/A speed=20.6x    frame=27033 fps=494 q=-0.0 size=N/A time=00:18:47.50 bitrate=N/A speed=20.6x    frame=27296 fps=494 q=-0.0 size=N/A time=00:18:58.47 bitrate=N/A speed=20.6x    frame=27579 fps=495 q=-0.0 size=N/A time=00:19:10.27 bitrate=N/A speed=20.6x    frame=27853 fps=495 q=-0.0 size=N/A time=00:19:21.70 bitrate=N/A speed=20.6x    frame=28140 fps=495 q=-0.0 size=N/A time=00:19:33.67 bitrate=N/A speed=20.7x    frame=28396 fps=496 q=-0.0 size=N/A time=00:19:44.34 bitrate=N/A speed=20.7x    frame=28667 fps=496 q=-0.0 size=N/A time=00:19:55.65 bitrate=N/A speed=20.7x    frame=28918 fps=496 q=-0.0 size=N/A time=00:20:06.12 bitrate=N/A speed=20.7x    frame=29177 fps=496 q=-0.0 size=N/A time=00:20:16.92 bitrate=N/A speed=20.7x    frame=29399 fps=495 q=-0.0 size=N/A time=00:20:26.18 bitrate=N/A speed=20.7x    frame=29617 fps=495 q=-0.0 size=N/A time=00:20:35.27 bitrate=N/A speed=20.6x    frame=29849 fps=494 q=-0.0 size=N/A time=00:20:44.95 bitrate=N/A speed=20.6x    frame=30094 fps=494 q=-0.0 size=N/A time=00:20:55.17 bitrate=N/A speed=20.6x    frame=30331 fps=494 q=-0.0 size=N/A time=00:21:05.05 bitrate=N/A speed=20.6x    frame=30550 fps=493 q=-0.0 size=N/A time=00:21:14.18 bitrate=N/A speed=20.6x    frame=30798 fps=493 q=-0.0 size=N/A time=00:21:24.53 bitrate=N/A speed=20.6x    frame=31031 fps=493 q=-0.0 size=N/A time=00:21:34.25 bitrate=N/A speed=20.6x    frame=31239 fps=492 q=-0.0 size=N/A time=00:21:42.92 bitrate=N/A speed=20.5x    frame=31431 fps=491 q=-0.0 size=N/A time=00:21:50.93 bitrate=N/A speed=20.5x    frame=31674 fps=491 q=-0.0 size=N/A time=00:22:01.06 bitrate=N/A speed=20.5x    frame=31908 fps=491 q=-0.0 size=N/A time=00:22:10.82 bitrate=N/A speed=20.5x    frame=32159 fps=491 q=-0.0 size=N/A time=00:22:21.29 bitrate=N/A speed=20.5x    frame=32398 fps=490 q=-0.0 size=N/A time=00:22:31.26 bitrate=N/A speed=20.4x    frame=32640 fps=490 q=-0.0 size=N/A time=00:22:41.36 bitrate=N/A speed=20.4x    frame=32900 fps=490 q=-0.0 size=N/A time=00:22:52.20 bitrate=N/A speed=20.4x    frame=33159 fps=490 q=-0.0 size=N/A time=00:23:03.00 bitrate=N/A speed=20.4x    frame=33413 fps=490 q=-0.0 size=N/A time=00:23:13.60 bitrate=N/A speed=20.4x    frame=33610 fps=490 q=-0.0 size=N/A time=00:23:21.81 bitrate=N/A speed=20.4x    frame=33814 fps=489 q=-0.0 size=N/A time=00:23:30.32 bitrate=N/A speed=20.4x    frame=34056 fps=489 q=-0.0 size=N/A time=00:23:40.41 bitrate=N/A speed=20.4x    frame=34278 fps=488 q=-0.0 size=N/A time=00:23:49.67 bitrate=N/A speed=20.4x    [Parsed_psnr_10 @ 000002869d2edf40] PSNR y:47.904953 u:52.057675 v:51.685294 average:48.871239 min:41.059363 max:inf
[out#0/null @ 000002869cedd2c0] video:14801KiB audio:269404KiB subtitle:0KiB other streams:0KiB global headers:0KiB muxing overhead: unknown
frame=34445 fps=488 q=-0.0 Lsize=N/A time=00:23:56.64 bitrate=N/A speed=20.3x    
